<svg xmlns="http://www.w3.org/2000/svg" width="40" height="40" viewBox="0 0 40 40">
  <defs>
    <style>
      .cls-1 {
        fill: #fef102;
      }

      .cls-2 {
        fill: #542200;
        fill-rule: evenodd;
      }

      .cls-3 {
        opacity: 0.41;
      }
    </style>
  </defs>
  <g>
    <circle id="楕円形_5" data-name="楕円形 5" class="cls-1" cx="20" cy="20" r="19.875"/>
    <path id="シェイプ_811" data-name="シェイプ 811" class="cls-2" d="M34.357,10.33c-0.614-.077-1.2-0.133-1.773-0.169v0.368q0.832,0.053,1.726.166V28.513S25.58,26.819,20.006,31.72c-5.573-4.9-14.317-3.207-14.317-3.207V10.694q0.9-.113,1.726-0.166V10.16c-0.569.036-1.159,0.091-1.773,0.169a0.368,0.368,0,0,0-.321.365V28.513a0.367,0.367,0,0,0,.437.361c0.086-.016,8.629-1.6,14,3.121a0.365,0.365,0,0,0,.484,0c5.37-4.72,13.908-3.138,13.993-3.121a0.367,0.367,0,0,0,.437-0.361V10.694A0.368,0.368,0,0,0,34.357,10.33Zm-0.413.69V28.079c-1.841-.275-8.953-1-13.938,3.157-3.355-2.8-7.677-3.385-10.707-3.385a22.435,22.435,0,0,0-3.243.228V11.02q0.7-.08,1.359-0.123V10.529q-0.832.053-1.726,0.166V28.513s8.744-1.694,14.317,3.207c5.574-4.9,14.305-3.207,14.305-3.207V10.694q-0.9-.113-1.726-0.166V10.9Q33.244,10.94,33.944,11.02ZM7.782,8.486c7.685-1.065,11.135,2.311,11.965,3.3a0.364,0.364,0,0,1,.454-0.041c0.912-1.039,4.438-4.308,12.016-3.258V10.14c0.122,0.005.243,0.012,0.367,0.02V8.486a0.368,0.368,0,0,0-.317-0.365c-7.686-1.064-11.294,2.187-12.31,3.34-1-1.157-4.545-4.4-12.226-3.34a0.368,0.368,0,0,0-.317.365V10.16c0.124-.008.245-0.015,0.367-0.02V8.486ZM20.327,27.756a0.368,0.368,0,0,1-.2.179c-0.041.038-.083,0.075-0.123,0.115l-0.118-.11a0.368,0.368,0,0,1-.223-0.2C14.9,23.565,7.782,25.066,7.782,25.066V10.876c-0.121.005-.243,0.013-0.367,0.021V25.066a0.368,0.368,0,0,0,.442.36c0.073-.015,7.334-1.478,11.893,2.89a0.367,0.367,0,0,0,.507,0c4.559-4.368,11.811-2.905,11.883-2.89a0.368,0.368,0,0,0,.443-0.36V10.9c-0.124-.008-0.245-0.014-0.367-0.021v14.19S25.092,23.561,20.327,27.756ZM32.217,10.507l0.367,0.022V10.16c-0.124-.008-0.245-0.015-0.367-0.02v0.367Zm-24.435,0V10.14c-0.122.005-.243,0.012-0.367,0.02v0.368Zm0,0.369V10.507l-0.367.022V10.9C7.539,10.889,7.661,10.882,7.782,10.876Zm24.435,0c0.122,0.006.243,0.013,0.367,0.021V10.529l-0.367-.022v0.368ZM20.367,12.052v0.066c0.616-.751,3.928-4.248,11.484-3.31v1.315c0.121,0,.244.012,0.367,0.018V8.486c-7.578-1.05-11.1,2.22-12.016,3.258A0.369,0.369,0,0,1,20.367,12.052ZM8.149,8.808c8.063-1,11.235,3.085,11.483,3.425V12.052a0.367,0.367,0,0,1,.115-0.267c-0.831-.989-4.28-4.365-11.965-3.3V10.14c0.123-.006.247-0.014,0.367-0.018V8.808ZM19.887,27.94l0.118,0.11c0.041-.039.082-0.076,0.123-0.115A0.376,0.376,0,0,1,20,27.96,0.362,0.362,0,0,1,19.887,27.94ZM31.85,24.627c-1.626-.256-7.3-0.833-11.484,2.612v0.353a0.369,0.369,0,0,1-.04.165c4.765-4.2,11.891-2.691,11.891-2.691V10.875c-0.123-.006-0.246-0.011-0.367-0.015V24.627ZM19.664,27.739a0.368,0.368,0,0,1-.031-0.147v-0.36a13.791,13.791,0,0,0-8.77-2.807,17.833,17.833,0,0,0-2.713.2V10.86l-0.367.016V25.066S14.9,23.565,19.664,27.739ZM31.85,10.491c0.121,0,.244.009,0.367,0.015V10.14c-0.123-.006-0.246-0.014-0.367-0.018v0.369Zm-23.7-.369c-0.121,0-.244.012-0.367,0.018v0.367l0.367-.016V10.122Zm0,0.738V10.491l-0.367.016v0.369Zm23.7,0c0.121,0,.243.009,0.367,0.015V10.507c-0.123-.006-0.246-0.012-0.367-0.015V10.86Zm-11.9,3.1c0.108-.115.247-0.255,0.417-0.41V12.118c-0.069.085-.106,0.136-0.11,0.141a0.367,0.367,0,0,1-.3.16h0a0.367,0.367,0,0,1-.3-0.163l-0.017-.024v1.4C19.757,13.756,19.864,13.866,19.95,13.959Zm0.291,0.787a0.367,0.367,0,0,1-.294.147h0a0.366,0.366,0,0,1-.294-0.151l-0.017-.022V27.231c0.125,0.1.25,0.207,0.372,0.317,0.119-.107.24-0.209,0.362-0.31V14.6C20.286,14.687,20.244,14.742,20.24,14.746Zm0.127-.683V13.549c-0.17.155-.309,0.3-0.417,0.41-0.085-.093-0.192-0.2-0.317-0.323v0.527a4.14,4.14,0,0,1,.314.363A4.608,4.608,0,0,1,20.367,14.063Zm-0.423.831h0a0.367,0.367,0,0,0,.294-0.147s0.045-.059.127-0.15V14.063a4.608,4.608,0,0,0-.42.463,4.14,4.14,0,0,0-.314-0.363v0.558l0.017,0.022A0.366,0.366,0,0,0,19.944,14.893ZM20.2,11.744a0.364,0.364,0,0,0-.454.041c0.139,0.165.207,0.267,0.207,0.267A3.7,3.7,0,0,1,20.2,11.744Zm-0.315,16.2c-0.074-.068-0.148-0.136-0.223-0.2A0.368,0.368,0,0,0,19.887,27.94Zm0.44-.184c-0.067.058-.133,0.118-0.2,0.179A0.368,0.368,0,0,0,20.327,27.756Zm-0.694-15.7v0.181l0.017,0.024a0.367,0.367,0,0,0,.3.163h0a0.367,0.367,0,0,0,.3-0.16s0.04-.056.11-0.141V12.052a0.369,0.369,0,0,0-.165-0.308,3.7,3.7,0,0,0-.247.308s-0.068-.1-0.207-0.267A0.367,0.367,0,0,0,19.633,12.052Zm0,15.18v0.36a0.368,0.368,0,0,0,.031.147c0.075,0.065.149,0.133,0.223,0.2a0.362,0.362,0,0,0,.113.02,0.376,0.376,0,0,0,.129-0.025c0.066-.061.132-0.121,0.2-0.179a0.369,0.369,0,0,0,.04-0.165V27.239c-0.122.1-.243,0.2-0.362,0.31C19.882,27.439,19.758,27.334,19.633,27.231Z"/>
  </g>
  <g class="cls-3">
    <circle id="楕円形_5-2" data-name="楕円形 5" class="cls-1" cx="20" cy="20" r="19.875"/>
    <path id="シェイプ_811-2" data-name="シェイプ 811" class="cls-2" d="M34.357,10.33c-0.614-.077-1.2-0.133-1.773-0.169v0.368q0.832,0.053,1.726.166V28.513S25.58,26.819,20.006,31.72c-5.573-4.9-14.317-3.207-14.317-3.207V10.694q0.9-.113,1.726-0.166V10.16c-0.569.036-1.159,0.091-1.773,0.169a0.368,0.368,0,0,0-.321.365V28.513a0.367,0.367,0,0,0,.437.361c0.086-.016,8.629-1.6,14,3.121a0.365,0.365,0,0,0,.484,0c5.37-4.72,13.908-3.138,13.993-3.121a0.367,0.367,0,0,0,.437-0.361V10.694A0.368,0.368,0,0,0,34.357,10.33Zm-0.413.69V28.079c-1.841-.275-8.953-1-13.938,3.157-3.355-2.8-7.677-3.385-10.707-3.385a22.435,22.435,0,0,0-3.243.228V11.02q0.7-.08,1.359-0.123V10.529q-0.832.053-1.726,0.166V28.513s8.744-1.694,14.317,3.207c5.574-4.9,14.305-3.207,14.305-3.207V10.694q-0.9-.113-1.726-0.166V10.9Q33.244,10.94,33.944,11.02ZM7.782,8.486c7.685-1.065,11.135,2.311,11.965,3.3a0.364,0.364,0,0,1,.454-0.041c0.912-1.039,4.438-4.308,12.016-3.258V10.14c0.122,0.005.243,0.012,0.367,0.02V8.486a0.368,0.368,0,0,0-.317-0.365c-7.686-1.064-11.294,2.187-12.31,3.34-1-1.157-4.545-4.4-12.226-3.34a0.368,0.368,0,0,0-.317.365V10.16c0.124-.008.245-0.015,0.367-0.02V8.486ZM20.327,27.756a0.368,0.368,0,0,1-.2.179c-0.041.038-.083,0.075-0.123,0.115l-0.118-.11a0.368,0.368,0,0,1-.223-0.2C14.9,23.565,7.782,25.066,7.782,25.066V10.876c-0.121.005-.243,0.013-0.367,0.021V25.066a0.368,0.368,0,0,0,.442.36c0.073-.015,7.334-1.478,11.893,2.89a0.367,0.367,0,0,0,.507,0c4.559-4.368,11.811-2.905,11.883-2.89a0.368,0.368,0,0,0,.443-0.36V10.9c-0.124-.008-0.245-0.014-0.367-0.021v14.19S25.092,23.561,20.327,27.756ZM32.217,10.507l0.367,0.022V10.16c-0.124-.008-0.245-0.015-0.367-0.02v0.367Zm-24.435,0V10.14c-0.122.005-.243,0.012-0.367,0.02v0.368Zm0,0.369V10.507l-0.367.022V10.9C7.539,10.889,7.661,10.882,7.782,10.876Zm24.435,0c0.122,0.006.243,0.013,0.367,0.021V10.529l-0.367-.022v0.368ZM20.367,12.052v0.066c0.616-.751,3.928-4.248,11.484-3.31v1.315c0.121,0,.244.012,0.367,0.018V8.486c-7.578-1.05-11.1,2.22-12.016,3.258A0.369,0.369,0,0,1,20.367,12.052ZM8.149,8.808c8.063-1,11.235,3.085,11.483,3.425V12.052a0.367,0.367,0,0,1,.115-0.267c-0.831-.989-4.28-4.365-11.965-3.3V10.14c0.123-.006.247-0.014,0.367-0.018V8.808ZM19.887,27.94l0.118,0.11c0.041-.039.082-0.076,0.123-0.115A0.376,0.376,0,0,1,20,27.96,0.362,0.362,0,0,1,19.887,27.94ZM31.85,24.627c-1.626-.256-7.3-0.833-11.484,2.612v0.353a0.369,0.369,0,0,1-.04.165c4.765-4.2,11.891-2.691,11.891-2.691V10.875c-0.123-.006-0.246-0.011-0.367-0.015V24.627ZM19.664,27.739a0.368,0.368,0,0,1-.031-0.147v-0.36a13.791,13.791,0,0,0-8.77-2.807,17.833,17.833,0,0,0-2.713.2V10.86l-0.367.016V25.066S14.9,23.565,19.664,27.739ZM31.85,10.491c0.121,0,.244.009,0.367,0.015V10.14c-0.123-.006-0.246-0.014-0.367-0.018v0.369Zm-23.7-.369c-0.121,0-.244.012-0.367,0.018v0.367l0.367-.016V10.122Zm0,0.738V10.491l-0.367.016v0.369Zm23.7,0c0.121,0,.243.009,0.367,0.015V10.507c-0.123-.006-0.246-0.012-0.367-0.015V10.86Zm-11.9,3.1c0.108-.115.247-0.255,0.417-0.41V12.118c-0.069.085-.106,0.136-0.11,0.141a0.367,0.367,0,0,1-.3.16h0a0.367,0.367,0,0,1-.3-0.163l-0.017-.024v1.4C19.757,13.756,19.864,13.866,19.95,13.959Zm0.291,0.787a0.367,0.367,0,0,1-.294.147h0a0.366,0.366,0,0,1-.294-0.151l-0.017-.022V27.231c0.125,0.1.25,0.207,0.372,0.317,0.119-.107.24-0.209,0.362-0.31V14.6C20.286,14.687,20.244,14.742,20.24,14.746Zm0.127-.683V13.549c-0.17.155-.309,0.3-0.417,0.41-0.085-.093-0.192-0.2-0.317-0.323v0.527a4.14,4.14,0,0,1,.314.363A4.608,4.608,0,0,1,20.367,14.063Zm-0.423.831h0a0.367,0.367,0,0,0,.294-0.147s0.045-.059.127-0.15V14.063a4.608,4.608,0,0,0-.42.463,4.14,4.14,0,0,0-.314-0.363v0.558l0.017,0.022A0.366,0.366,0,0,0,19.944,14.893ZM20.2,11.744a0.364,0.364,0,0,0-.454.041c0.139,0.165.207,0.267,0.207,0.267A3.7,3.7,0,0,1,20.2,11.744Zm-0.315,16.2c-0.074-.068-0.148-0.136-0.223-0.2A0.368,0.368,0,0,0,19.887,27.94Zm0.44-.184c-0.067.058-.133,0.118-0.2,0.179A0.368,0.368,0,0,0,20.327,27.756Zm-0.694-15.7v0.181l0.017,0.024a0.367,0.367,0,0,0,.3.163h0a0.367,0.367,0,0,0,.3-0.16s0.04-.056.11-0.141V12.052a0.369,0.369,0,0,0-.165-0.308,3.7,3.7,0,0,0-.247.308s-0.068-.1-0.207-0.267A0.367,0.367,0,0,0,19.633,12.052Zm0,15.18v0.36a0.368,0.368,0,0,0,.031.147c0.075,0.065.149,0.133,0.223,0.2a0.362,0.362,0,0,0,.113.02,0.376,0.376,0,0,0,.129-0.025c0.066-.061.132-0.121,0.2-0.179a0.369,0.369,0,0,0,.04-0.165V27.239c-0.122.1-.243,0.2-0.362,0.31C19.882,27.439,19.758,27.334,19.633,27.231Z"/>
  </g>
</svg>
