<svg xmlns="http://www.w3.org/2000/svg" width="40" height="40" viewBox="0 0 40 40">
  <defs>
    <style>
      .cls-1 {
        fill: #fef102;
      }

      .cls-2 {
        fill: #eb3207;
        fill-rule: evenodd;
      }

      .cls-3 {
        opacity: 0.59;
      }
    </style>
  </defs>
  <circle id="楕円形_5" data-name="楕円形 5" class="cls-1" cx="20" cy="20" r="19.875"/>
  <path id="シェイプ_20" data-name="シェイプ 20" class="cls-2" d="M20.024,21.509l12.127-8.83a1.532,1.532,0,0,0-.884-0.281H8.782a1.533,1.533,0,0,0-.884.281ZM32.743,26.3a1.412,1.412,0,0,0,.05-0.356V14.07L25.53,19.357Zm-8.461-6.029-4.257,3.1-4.257-3.1L8.388,27.371a1.608,1.608,0,0,0,.394.057H31.267a1.6,1.6,0,0,0,.393-0.057Zm-9.762-.909L7.257,14.07V25.94a1.415,1.415,0,0,0,.05.356Z"/>
  <g class="cls-3">
    <circle id="楕円形_5-2" data-name="楕円形 5" class="cls-1" cx="20" cy="20" r="19.875"/>
    <path id="シェイプ_20-2" data-name="シェイプ 20" class="cls-2" d="M20.024,21.509l12.127-8.83a1.532,1.532,0,0,0-.884-0.281H8.782a1.533,1.533,0,0,0-.884.281ZM32.743,26.3a1.412,1.412,0,0,0,.05-0.356V14.07L25.53,19.357Zm-8.461-6.029-4.257,3.1-4.257-3.1L8.388,27.371a1.608,1.608,0,0,0,.394.057H31.267a1.6,1.6,0,0,0,.393-0.057Zm-9.762-.909L7.257,14.07V25.94a1.415,1.415,0,0,0,.05.356Z"/>
  </g>
</svg>
