<svg xmlns="http://www.w3.org/2000/svg" width="40" height="40" viewBox="0 0 40 40">
  <defs>
    <style>
      .cls-1 {
        fill: #eb3207;
      }

      .cls-2 {
        fill: #fef102;
        fill-rule: evenodd;
      }

      .cls-3 {
        opacity: 0.39;
      }
    </style>
  </defs>
  <g>
    <circle id="楕円形_5" data-name="楕円形 5" class="cls-1" cx="20" cy="20" r="19.875"/>
    <path id="シェイプ_4158_1" data-name="シェイプ 4158 1" class="cls-2" d="M29.514,24.994V24.974l-5.331,5.357h0l-0.023.024-0.278.279h0L23.752,31H10.633A0.585,0.585,0,0,1,10,30.448v-19c0-.175.143-0.316,0.629-0.316h2.855V9.391A0.316,0.316,0,0,1,13.76,9h1.319a0.33,0.33,0,0,1,.284.388v1.738h4V9.391c0-.222-0.147-0.388.058-0.388h1.319a0.389,0.389,0,0,1,.164.024,1.094,1.094,0,0,1,.033.222v1.881h3.7V9.248A0.2,0.2,0,0,1,24.853,9L26.57,9.013c-0.151,0-.1.006-0.075,0.014a1.661,1.661,0,0,0,.017.221v1.881h3.165a0.317,0.317,0,0,1,.319.316V24.51l-0.481.483h0Zm-3-13.374v1.418H24.636V11.619h-3.7v1.418H19.364V11.619h-4v1.418H13.484l0.005-1.418H10.508V30.524l13.024-.195a1.162,1.162,0,0,1,.011.338l0.023-.232V25.107c0-.582.2-0.39,0.6-0.39h5.272l0.054-.409a0.166,0.166,0,0,1,.021,0V11.619h-3Zm-1.066,9.938H14.554a0.247,0.247,0,0,1,0-.49H25.445a0.247,0.247,0,0,1,0,.49h0Zm0-4.244H14.554a0.232,0.232,0,0,1-.218-0.245,0.342,0.342,0,0,1,.218-0.244H25.445a0.342,0.342,0,0,1,.218.244,0.232,0.232,0,0,1-.218.245h0ZM14.411,25.358h6.547c0.246,0,.075.336,0.075,0.046v0.3c0,0.05.2,0.095-.075,0.095H14.411a0.087,0.087,0,0,1-.075-0.095V25.4c0,0.289.039-.046,0.075-0.046h0Z"/>
  </g>
  <g class="cls-3">
    <circle id="楕円形_5-2" data-name="楕円形 5" class="cls-1" cx="20" cy="20" r="19.875"/>
    <path id="シェイプ_4158_1-2" data-name="シェイプ 4158 1" class="cls-2" d="M29.514,24.994V24.974l-5.331,5.357h0l-0.023.024-0.278.279h0L23.752,31H10.633A0.585,0.585,0,0,1,10,30.448v-19c0-.175.143-0.316,0.629-0.316h2.855V9.391A0.316,0.316,0,0,1,13.76,9h1.319a0.33,0.33,0,0,1,.284.388v1.738h4V9.391c0-.222-0.147-0.388.058-0.388h1.319a0.389,0.389,0,0,1,.164.024,1.094,1.094,0,0,1,.033.222v1.881h3.7V9.248A0.2,0.2,0,0,1,24.853,9L26.57,9.013c-0.151,0-.1.006-0.075,0.014a1.661,1.661,0,0,0,.017.221v1.881h3.165a0.317,0.317,0,0,1,.319.316V24.51l-0.481.483h0Zm-3-13.374v1.418H24.636V11.619h-3.7v1.418H19.364V11.619h-4v1.418H13.484l0.005-1.418H10.508V30.524l13.024-.195a1.162,1.162,0,0,1,.011.338l0.023-.232V25.107c0-.582.2-0.39,0.6-0.39h5.272l0.054-.409a0.166,0.166,0,0,1,.021,0V11.619h-3Zm-1.066,9.938H14.554a0.247,0.247,0,0,1,0-.49H25.445a0.247,0.247,0,0,1,0,.49h0Zm0-4.244H14.554a0.232,0.232,0,0,1-.218-0.245,0.342,0.342,0,0,1,.218-0.244H25.445a0.342,0.342,0,0,1,.218.244,0.232,0.232,0,0,1-.218.245h0ZM14.411,25.358h6.547c0.246,0,.075.336,0.075,0.046v0.3c0,0.05.2,0.095-.075,0.095H14.411a0.087,0.087,0,0,1-.075-0.095V25.4c0,0.289.039-.046,0.075-0.046h0Z"/>
  </g>
</svg>
